<?xml version="1.0" encoding="utf-8"?>
<!-- Generator: Adobe Illustrator 19.0.1, SVG Export Plug-In . SVG Version: 6.00 Build 0)  -->
<svg version="1.1" xmlns="http://www.w3.org/2000/svg" xmlns:xlink="http://www.w3.org/1999/xlink" x="0px" y="0px"
	 viewBox="0 0 199 42" style="enable-background:new 0 0 199 42;" xml:space="preserve">
<style type="text/css">
	.st0{fill:#B7B7B7;}
	.st1{fill:#FFCB0F;}
</style>
<g id="Your_Company_TagLine_Here">
	<g>
		<path class="st0" d="M6,32.7L2.1,26h1.5l3,5.3l3-5.3h1.5l-3.9,6.7v5.1H6V32.7z"/>
		<path class="st0" d="M16.9,36.9c-0.8,0.8-1.7,1.1-2.7,1.1c-1.1,0-2-0.4-2.7-1.1c-0.8-0.8-1.1-1.7-1.1-2.7c0-1.1,0.4-2,1.1-2.8
			c0.8-0.8,1.7-1.1,2.7-1.1c1.1,0,2,0.4,2.7,1.1c0.8,0.8,1.1,1.7,1.1,2.8C18,35.2,17.6,36.1,16.9,36.9z M16,32.2
			c-0.5-0.5-1.1-0.8-1.9-0.8c-0.8,0-1.4,0.3-1.9,0.8c-0.5,0.5-0.7,1.2-0.7,1.9c0,0.8,0.2,1.4,0.7,1.9c0.5,0.5,1.1,0.8,1.9,0.8
			c0.8,0,1.4-0.3,1.9-0.8c0.5-0.5,0.7-1.2,0.7-1.9C16.7,33.4,16.5,32.7,16,32.2z"/>
		<path class="st0" d="M20.9,30.4v4.1c0,0.3,0,0.5,0,0.7c0,0.2,0.1,0.4,0.1,0.6c0.1,0.2,0.2,0.4,0.3,0.5c0.1,0.1,0.3,0.2,0.5,0.3
			c0.2,0.1,0.5,0.1,0.8,0.1s0.5,0,0.8-0.1s0.4-0.2,0.5-0.3c0.1-0.1,0.2-0.3,0.3-0.5c0.1-0.2,0.1-0.4,0.1-0.6s0-0.4,0-0.7v-4.1h1.3
			v4.2c0,2.2-1,3.3-2.9,3.3s-2.9-1.1-2.9-3.3v-4.2H20.9z"/>
		<path class="st0" d="M28.9,30.4v0.8h0c0.3-0.3,0.5-0.6,0.7-0.8s0.5-0.2,0.9-0.2c0.3,0,0.7,0.1,1.1,0.3l-0.6,1.1
			c-0.3-0.2-0.6-0.3-0.8-0.3c-1,0-1.4,0.9-1.4,2.7v3.7h-1.3v-7.4H28.9z"/>
		<path class="st0" d="M46.8,26.9v1.6c-1-1-2.2-1.6-3.6-1.6c-1.3,0-2.4,0.5-3.4,1.5c-0.9,1-1.4,2.1-1.4,3.4s0.5,2.5,1.4,3.4
			c0.9,1,2.1,1.5,3.4,1.5c1.3,0,2.5-0.5,3.6-1.6v1.6c-1.1,0.8-2.2,1.2-3.5,1.2c-1.7,0-3.1-0.6-4.3-1.8s-1.8-2.6-1.8-4.3
			c0-1.7,0.6-3.1,1.8-4.3c1.2-1.2,2.7-1.8,4.3-1.8C44.6,25.8,45.8,26.2,46.8,26.9z"/>
		<path class="st0" d="M55,36.9c-0.8,0.8-1.7,1.1-2.7,1.1c-1.1,0-2-0.4-2.7-1.1c-0.8-0.8-1.1-1.7-1.1-2.7c0-1.1,0.4-2,1.1-2.8
			c0.8-0.8,1.7-1.1,2.7-1.1c1.1,0,2,0.4,2.7,1.1c0.8,0.8,1.1,1.7,1.1,2.8C56.1,35.2,55.8,36.1,55,36.9z M54.1,32.2
			c-0.5-0.5-1.1-0.8-1.9-0.8c-0.8,0-1.4,0.3-1.9,0.8c-0.5,0.5-0.7,1.2-0.7,1.9c0,0.8,0.2,1.4,0.7,1.9c0.5,0.5,1.1,0.8,1.9,0.8
			c0.8,0,1.4-0.3,1.9-0.8c0.5-0.5,0.7-1.2,0.7-1.9C54.9,33.4,54.6,32.7,54.1,32.2z"/>
		<path class="st0" d="M59.1,30.4v0.8h0c0.4-0.7,1-1,1.8-1c0.4,0,0.8,0.1,1.2,0.3c0.4,0.2,0.6,0.5,0.8,0.9c0.2-0.4,0.5-0.7,0.9-0.9
			c0.4-0.2,0.8-0.3,1.3-0.3c1.6,0,2.4,1,2.4,3.1v4.5h-1.3v-4.3c0-0.3,0-0.6,0-0.8s-0.1-0.4-0.2-0.7c-0.1-0.2-0.2-0.4-0.4-0.5
			s-0.4-0.2-0.7-0.2c-0.3,0-0.6,0.1-0.9,0.2c-0.2,0.1-0.4,0.4-0.5,0.6s-0.2,0.5-0.2,0.8c0,0.3-0.1,0.5-0.1,0.9v3.9h-1.3v-4.2
			c0-1.5-0.4-2.2-1.3-2.2c-0.3,0-0.6,0.1-0.9,0.2c-0.2,0.2-0.4,0.4-0.5,0.7s-0.2,0.6-0.2,0.8c0,0.3-0.1,0.6-0.1,0.9v3.8h-1.3v-7.4
			H59.1z"/>
		<path class="st0" d="M71.1,30.4v1h0c0.6-0.8,1.5-1.3,2.5-1.3c1,0,1.9,0.4,2.5,1.2c0.7,0.8,1,1.7,1,2.8c0,1.1-0.3,2-1,2.7
			c-0.6,0.7-1.5,1.1-2.6,1.1c-1.1,0-1.9-0.4-2.5-1.2h0v5.2h-1.3V30.4H71.1z M73.4,31.4c-0.7,0-1.3,0.3-1.7,0.8S71,33.3,71,34
			c0,0.8,0.2,1.4,0.7,2c0.4,0.6,1,0.8,1.8,0.8c0.8,0,1.4-0.3,1.8-0.8s0.7-1.2,0.7-2c0-0.8-0.2-1.4-0.7-1.9S74.2,31.4,73.4,31.4z"/>
		<path class="st0" d="M85.7,30.4v7.4h-1.3v-1h0c-0.6,0.8-1.5,1.2-2.5,1.2c-1,0-1.9-0.4-2.5-1.1c-0.7-0.8-1-1.7-1-2.7
			c0-1.1,0.3-2,1-2.8c0.6-0.8,1.5-1.1,2.6-1.1c1,0,1.9,0.4,2.5,1.3h0v-1H85.7z M82,31.4c-0.7,0-1.3,0.3-1.7,0.8s-0.7,1.1-0.7,1.9
			c0,0.8,0.2,1.4,0.6,2s1,0.8,1.8,0.8c0.8,0,1.4-0.3,1.8-0.8c0.4-0.5,0.6-1.2,0.6-2c0-0.8-0.2-1.4-0.7-1.9S82.7,31.4,82,31.4z"/>
		<path class="st0" d="M89.2,30.4v0.9h0c0.5-0.7,1.2-1.1,2.1-1.1c0.9,0,1.6,0.3,2,0.9s0.5,1.4,0.5,2.3v4.4h-1.3v-4.2
			c0-0.4,0-0.6,0-0.9c0-0.2-0.1-0.5-0.2-0.7c-0.1-0.2-0.3-0.4-0.5-0.5c-0.2-0.1-0.5-0.2-0.9-0.2c-0.3,0-0.6,0.1-0.9,0.2
			c-0.2,0.1-0.4,0.3-0.5,0.5c-0.1,0.2-0.2,0.4-0.3,0.7c-0.1,0.3-0.1,0.5-0.1,0.8s0,0.5,0,0.8v3.5H88v-7.4H89.2z"/>
		<path class="st0" d="M98.4,37.1L95,30.4h1.5l2.6,5.3l2.4-5.3h1.4l-5.4,11.5H96L98.4,37.1z"/>
		<path class="st0" d="M112,27.2v10.6h-1.3V27.2h-2.9V26h7.1v1.2H112z"/>
		<path class="st0" d="M121.4,30.4v7.4h-1.3v-1h0c-0.6,0.8-1.5,1.2-2.5,1.2c-1,0-1.9-0.4-2.5-1.1c-0.7-0.8-1-1.7-1-2.7
			c0-1.1,0.3-2,1-2.8c0.6-0.8,1.5-1.1,2.6-1.1c1,0,1.9,0.4,2.5,1.3h0v-1H121.4z M117.7,31.4c-0.7,0-1.3,0.3-1.7,0.8
			s-0.7,1.1-0.7,1.9c0,0.8,0.2,1.4,0.7,2s1,0.8,1.8,0.8c0.8,0,1.4-0.3,1.8-0.8s0.7-1.2,0.7-2c0-0.8-0.2-1.4-0.7-1.9
			S118.5,31.4,117.7,31.4z"/>
		<path class="st0" d="M130.4,30.4v7c0,0.5,0,0.9,0,1.2c0,0.3-0.1,0.6-0.2,1c-0.1,0.4-0.3,0.7-0.5,1c-0.7,0.9-1.6,1.3-2.9,1.3
			c-1,0-1.9-0.3-2.6-0.9s-1-1.4-1-2.5h1.3c0,0.7,0.2,1.2,0.7,1.6c0.4,0.4,1,0.6,1.7,0.6c0.5,0,0.9-0.1,1.2-0.2
			c0.3-0.2,0.6-0.4,0.7-0.7s0.3-0.6,0.4-1c0.1-0.3,0.1-0.7,0.1-1.2v-0.9h0c-0.3,0.4-0.7,0.7-1.1,0.9c-0.5,0.2-0.9,0.3-1.4,0.3
			c-1,0-1.9-0.4-2.5-1.1c-0.6-0.8-1-1.7-1-2.7c0-1.1,0.3-2,1-2.8s1.5-1.2,2.6-1.2c1,0,1.9,0.4,2.5,1.3h0v-1H130.4z M126.7,31.4
			c-0.7,0-1.3,0.3-1.7,0.8s-0.7,1.1-0.7,1.9c0,0.8,0.2,1.4,0.7,2s1,0.8,1.8,0.8c0.8,0,1.4-0.3,1.8-0.8s0.7-1.2,0.7-2
			c0-0.8-0.2-1.4-0.7-1.9S127.4,31.4,126.7,31.4z"/>
		<path class="st0" d="M134.1,26v10.6h3.3v1.2h-4.6V26H134.1z"/>
		<path class="st0" d="M138.9,27c0.2-0.2,0.4-0.3,0.6-0.3s0.4,0.1,0.6,0.3c0.2,0.2,0.3,0.4,0.3,0.6c0,0.3-0.1,0.5-0.3,0.6
			c-0.2,0.2-0.4,0.3-0.6,0.3s-0.4-0.1-0.6-0.3c-0.2-0.2-0.3-0.4-0.3-0.6C138.6,27.4,138.7,27.2,138.9,27z M140.2,30.4v7.4h-1.3v-7.4
			H140.2z"/>
		<path class="st0" d="M144,30.4v0.9h0c0.5-0.7,1.2-1.1,2.1-1.1c0.9,0,1.6,0.3,2,0.9c0.4,0.6,0.5,1.4,0.5,2.3v4.4h-1.3v-4.2
			c0-0.4,0-0.6,0-0.9c0-0.2-0.1-0.5-0.2-0.7c-0.1-0.2-0.3-0.4-0.5-0.5c-0.2-0.1-0.5-0.2-0.9-0.2c-0.3,0-0.6,0.1-0.9,0.2
			c-0.2,0.1-0.4,0.3-0.5,0.5c-0.1,0.2-0.2,0.4-0.3,0.7c-0.1,0.3-0.1,0.5-0.1,0.8s0,0.5,0,0.8v3.5h-1.3v-7.4H144z"/>
		<path class="st0" d="M157.5,34.4h-5.8c0,0.7,0.2,1.3,0.7,1.7c0.4,0.5,1,0.7,1.7,0.7c0.9,0,1.7-0.5,2.2-1.5l1.1,0.6
			c-0.7,1.4-1.9,2.1-3.4,2.1c-1.1,0-1.9-0.4-2.6-1.1c-0.7-0.7-1-1.6-1-2.7c0-1.1,0.3-2.1,1-2.8c0.6-0.8,1.5-1.1,2.6-1.1
			c1.1,0,2,0.4,2.6,1.2S157.5,33.2,157.5,34.4z M151.7,33.3h4.4c-0.1-0.5-0.3-1-0.7-1.4c-0.4-0.4-0.9-0.6-1.4-0.6
			c-0.5,0-1,0.2-1.5,0.6C152.1,32.3,151.8,32.8,151.7,33.3z"/>
		<path class="st0" d="M165.4,30.8h6V26h1.3v11.8h-1.3V32h-6v5.8h-1.3V26h1.3V30.8z"/>
		<path class="st0" d="M181.6,34.4h-5.8c0,0.7,0.2,1.3,0.7,1.7c0.4,0.5,1,0.7,1.7,0.7c0.9,0,1.7-0.5,2.2-1.5l1.1,0.6
			c-0.7,1.4-1.9,2.1-3.4,2.1c-1.1,0-1.9-0.4-2.6-1.1c-0.7-0.7-1-1.6-1-2.7c0-1.1,0.3-2.1,1-2.8c0.6-0.8,1.5-1.1,2.6-1.1
			c1.1,0,2,0.4,2.6,1.2S181.7,33.2,181.6,34.4z M175.9,33.3h4.4c-0.1-0.5-0.3-1-0.7-1.4c-0.4-0.4-0.9-0.6-1.4-0.6
			c-0.5,0-1,0.2-1.5,0.6C176.2,32.3,176,32.8,175.9,33.3z"/>
		<path class="st0" d="M184.5,30.4v0.8h0c0.3-0.3,0.5-0.6,0.7-0.8s0.5-0.2,0.9-0.2c0.3,0,0.7,0.1,1.1,0.3l-0.6,1.1
			c-0.3-0.2-0.6-0.3-0.8-0.3c-1,0-1.4,0.9-1.4,2.7v3.7h-1.3v-7.4H184.5z"/>
		<path class="st0" d="M195,34.4h-5.8c0,0.7,0.2,1.3,0.7,1.7c0.4,0.5,1,0.7,1.7,0.7c0.9,0,1.7-0.5,2.2-1.5l1.1,0.6
			c-0.7,1.4-1.9,2.1-3.4,2.1c-1.1,0-1.9-0.4-2.6-1.1c-0.7-0.7-1-1.6-1-2.7c0-1.1,0.3-2.1,1-2.8c0.6-0.8,1.5-1.1,2.6-1.1
			c1.1,0,2,0.4,2.6,1.2S195.1,33.2,195,34.4z M189.3,33.3h4.4c-0.1-0.5-0.3-1-0.7-1.4c-0.4-0.4-0.9-0.6-1.4-0.6
			c-0.5,0-1,0.2-1.5,0.6C189.6,32.3,189.3,32.8,189.3,33.3z"/>
	</g>
</g>
<g id="Construction">
	<g>
		<path class="st1" d="M15.6,1.1l-0.9,5.6c-0.4-0.6-0.9-1.1-1.6-1.5s-1.4-0.5-2.2-0.5c-1.4,0-2.7,0.5-3.7,1.4c-1,1-1.7,2.1-1.9,3.6
			c-0.2,1.4,0,2.6,0.8,3.5c0.8,0.9,1.9,1.4,3.3,1.4c0.8,0,1.5-0.2,2.3-0.5c0.8-0.3,1.5-0.8,2-1.4l-0.9,5.6c-0.7,0.2-1.2,0.4-1.6,0.4
			c-0.3,0.1-0.7,0.2-1.2,0.3c-0.5,0.1-1,0.1-1.5,0.1c-1.3,0-2.4-0.2-3.5-0.7c-1.1-0.5-2-1.1-2.8-2c-1.6-1.7-2.2-4-1.8-6.8
			c0.2-1.2,0.6-2.4,1.2-3.6C2.3,5,3.1,4,4.1,3.1c1-0.9,2.2-1.6,3.5-2.1c1.3-0.5,2.6-0.8,3.9-0.8C12.9,0.2,14.3,0.5,15.6,1.1z"/>
		<path class="st1" d="M27.7,0.1c1.3,0,2.5,0.2,3.7,0.7c1.1,0.5,2.1,1.1,2.9,1.9c0.8,0.8,1.4,1.8,1.7,3c0.4,1.2,0.4,2.4,0.2,3.7
			c-0.3,1.9-1,3.6-2.1,5.2s-2.5,2.7-4.1,3.5c-1.7,0.8-3.4,1.3-5.4,1.3s-3.6-0.4-4.9-1.3c-1.4-0.8-2.4-2-3-3.5
			c-0.6-1.5-0.8-3.2-0.5-5.2c0.3-1.8,1-3.4,2.2-4.8C19.6,3.1,21,2,22.7,1.2C24.3,0.5,26,0.1,27.7,0.1z M30.4,6.1
			c-0.9-1-2-1.4-3.4-1.4c-1.4,0-2.7,0.5-3.8,1.4c-1.2,1-1.8,2.1-2,3.3c-0.2,1.5,0.1,2.8,0.9,3.8c0.8,1,1.9,1.5,3.4,1.5
			c1.4,0,2.7-0.5,3.9-1.5c1.2-1,1.9-2.3,2.1-3.8C31.6,8.1,31.2,7,30.4,6.1z"/>
		<path class="st1" d="M37,18.7l2.8-18.1h4.7l6.8,11h0l1.7-11h4.7L55,18.7h-4.7L43.4,7.7h0l-1.7,11.1H37z"/>
		<path class="st1" d="M72.5,1.7l-2.4,3.6c-0.8-0.8-1.8-1.2-2.9-1.2c-0.5,0-1,0.1-1.4,0.4c-0.5,0.3-0.7,0.6-0.8,1.1
			c0,0.3,0,0.5,0.1,0.7c0.1,0.2,0.3,0.4,0.5,0.5c0.2,0.1,0.4,0.2,0.6,0.3c0.2,0.1,0.4,0.1,0.6,0.2l1.1,0.4c1.3,0.4,2.3,1,3,1.8
			s0.9,1.8,0.7,3.2c-0.3,2.2-1.2,3.8-2.6,4.9c-1.5,1.1-3.3,1.7-5.4,1.7c-2.3,0-4.3-0.7-6-2.1l2.6-3.8c1.2,1.2,2.5,1.9,3.9,1.9
			c0.6,0,1.2-0.2,1.7-0.5c0.5-0.3,0.8-0.8,0.9-1.4c0-0.2,0-0.5-0.1-0.7c-0.1-0.2-0.2-0.4-0.4-0.5s-0.4-0.3-0.6-0.4
			c-0.3-0.1-0.5-0.2-0.6-0.3c-0.2-0.1-0.4-0.1-0.6-0.2c-0.1,0-0.1,0-0.1,0c-0.4-0.1-0.7-0.2-0.9-0.3c-0.2-0.1-0.5-0.2-0.8-0.3
			c-0.3-0.1-0.5-0.2-0.7-0.3S61.2,10.2,61,10c-0.2-0.2-0.4-0.3-0.5-0.5S60.2,9.2,60.1,9s-0.2-0.5-0.2-0.7c0-0.3-0.1-0.6-0.1-0.9
			c0-0.3,0-0.7,0.1-1.1C60.2,4.4,61,3,62.4,1.9c1.3-1.1,2.9-1.7,4.8-1.7C68,0.2,69,0.3,70,0.6C70.9,0.9,71.8,1.2,72.5,1.7z"/>
		<path class="st1" d="M82.2,4.7L80,18.7h-4.7l2.2-14.1h-3.9l0.6-4h12.5l-0.6,4H82.2z"/>
		<path class="st1" d="M96.1,11.3l4.5,7.4h-5.8l-3.3-6.9h0l-1.1,6.9h-4.7l2.8-18.1h7c1.9,0,3.3,0.5,4.3,1.4c1,0.9,1.4,2.3,1.1,4.2
			c-0.2,1.3-0.7,2.4-1.6,3.4C98.4,10.5,97.4,11.1,96.1,11.3z M92.6,4.3l-0.7,4.5h0.5c0.4,0,0.8,0,1.2-0.1c0.4-0.1,0.7-0.2,1.1-0.3
			c0.4-0.1,0.7-0.4,0.9-0.7c0.2-0.3,0.4-0.7,0.5-1.2c0.1-0.5,0-0.9-0.1-1.2s-0.4-0.6-0.7-0.7c-0.3-0.1-0.6-0.2-1-0.3
			c-0.3-0.1-0.7-0.1-1.1-0.1H92.6z"/>
		<path class="st1" d="M115.7,0.7h4.7l-1.6,10.2c-0.1,0.7-0.2,1.3-0.3,1.8c-0.1,0.5-0.3,1-0.5,1.6c-0.2,0.6-0.5,1.1-0.8,1.6
			c-0.4,0.5-0.8,1-1.3,1.4c-0.8,0.7-1.8,1.2-2.9,1.5s-2.3,0.5-3.4,0.5s-2.2-0.2-3.2-0.5s-1.8-0.8-2.4-1.5c-0.4-0.4-0.6-0.9-0.8-1.4
			c-0.2-0.5-0.3-1-0.3-1.6c0-0.6,0-1.1,0-1.6c0-0.5,0.1-1.1,0.2-1.8l1.6-10.2h4.7l-1.5,9.5c-0.1,0.5-0.1,0.9-0.2,1.2
			c0,0.3,0,0.7,0,1.1c0,0.4,0,0.8,0.1,1c0.1,0.3,0.2,0.5,0.4,0.8s0.5,0.4,0.8,0.6c0.4,0.1,0.8,0.2,1.2,0.2c0.6,0,1.1-0.1,1.5-0.3
			c0.4-0.2,0.8-0.4,1.1-0.7c0.3-0.3,0.5-0.7,0.7-1.1c0.2-0.5,0.3-0.9,0.4-1.3c0.1-0.4,0.2-0.9,0.3-1.4L115.7,0.7z"/>
		<path class="st1" d="M136.2,1.1l-0.9,5.6c-0.4-0.6-0.9-1.1-1.6-1.5c-0.7-0.3-1.4-0.5-2.2-0.5c-1.4,0-2.7,0.5-3.7,1.4
			c-1,1-1.7,2.1-1.9,3.6c-0.2,1.4,0,2.6,0.8,3.5c0.8,0.9,1.9,1.4,3.3,1.4c0.8,0,1.5-0.2,2.3-0.5c0.8-0.3,1.5-0.8,2-1.4l-0.9,5.6
			c-0.7,0.2-1.2,0.4-1.6,0.4c-0.3,0.1-0.7,0.2-1.2,0.3c-0.5,0.1-1,0.1-1.5,0.1c-1.3,0-2.4-0.2-3.5-0.7c-1.1-0.5-2-1.1-2.8-2
			c-1.6-1.7-2.2-4-1.8-6.8c0.2-1.2,0.6-2.4,1.2-3.6c0.6-1.1,1.5-2.2,2.4-3c1-0.9,2.2-1.6,3.5-2.1c1.3-0.5,2.6-0.8,3.9-0.8
			C133.4,0.2,134.8,0.5,136.2,1.1z"/>
		<path class="st1" d="M145.7,4.7l-2.2,14.1h-4.7L141,4.7h-3.9l0.6-4h12.5l-0.6,4H145.7z"/>
		<path class="st1" d="M156.6,0.7l-2.8,18.1H149l2.8-18.1H156.6z"/>
		<path class="st1" d="M168.8,0.1c1.3,0,2.5,0.2,3.7,0.7c1.1,0.5,2.1,1.1,2.9,1.9c0.8,0.8,1.4,1.8,1.7,3c0.4,1.2,0.4,2.4,0.2,3.7
			c-0.3,1.9-1,3.6-2.1,5.2s-2.5,2.7-4.1,3.5c-1.7,0.8-3.4,1.3-5.4,1.3c-1.9,0-3.6-0.4-4.9-1.3c-1.4-0.8-2.4-2-3-3.5
			c-0.6-1.5-0.8-3.2-0.5-5.2c0.3-1.8,1-3.4,2.2-4.8c1.2-1.4,2.6-2.5,4.2-3.3C165.4,0.5,167.1,0.1,168.8,0.1z M171.5,6.1
			c-0.9-1-2-1.4-3.4-1.4c-1.4,0-2.7,0.5-3.8,1.4c-1.2,1-1.8,2.1-2,3.3c-0.2,1.5,0.1,2.8,0.9,3.8c0.8,1,1.9,1.5,3.4,1.5
			s2.7-0.5,3.9-1.5c1.2-1,1.9-2.3,2.1-3.8C172.7,8.1,172.3,7,171.5,6.1z"/>
		<path class="st1" d="M178,18.7l2.8-18.1h4.7l6.8,11h0l1.7-11h4.7l-2.8,18.1h-4.7l-6.8-11.1h0l-1.7,11.1H178z"/>
	</g>
</g>
</svg>
